<?xml version="1.0" standalone="no"?>
<!DOCTYPE svg PUBLIC "-//W3C//DTD SVG 20010904//EN"
 "http://www.w3.org/TR/2001/REC-SVG-20010904/DTD/svg10.dtd">
<svg version="1.0" xmlns="http://www.w3.org/2000/svg"
 width="123.000000pt" height="123.000000pt" viewBox="0 0 123.000000 123.000000"
 preserveAspectRatio="xMidYMid meet">
<metadata>
Created by potrace 1.11, written by Peter Selinger 2001-2013
</metadata>
<g transform="translate(0.000000,123.000000) scale(0.100000,-0.100000)"
fill="#000000" stroke="none">
<path d="M268 991 c-37 -18 -55 -45 -72 -109 l-13 -51 350 2 351 2 21 85 22
86 -315 -1 c-252 0 -321 -3 -344 -14z"/>
<path d="M975 995 c-2 -5 -11 -37 -20 -70 -9 -33 -18 -68 -21 -77 -5 -15 2
-18 41 -18 40 0 46 -3 41 -17 -3 -10 -26 -96 -51 -191 -25 -95 -48 -179 -51
-187 -5 -13 8 -15 82 -15 l89 0 68 253 c37 138 67 261 67 273 0 11 -6 29 -14
39 -12 16 -28 19 -121 20 -67 1 -108 -3 -110 -10z"/>
<path d="M170 803 c0 -5 -22 -92 -49 -195 l-48 -188 87 0 88 0 13 53 c7 28 13
54 14 57 0 3 6 25 13 50 l13 46 205 -1 c131 0 208 3 213 10 8 10 51 153 51
168 0 4 -135 7 -300 7 -165 0 -300 -3 -300 -7z"/>
<path d="M56 384 c-8 -20 1 -34 22 -35 10 -1 7 -4 -8 -8 -25 -7 -43 -34 -56
-84 -6 -27 -5 -28 27 -25 26 2 34 8 39 28 6 24 9 25 89 27 55 1 88 6 96 15 16
15 36 84 27 92 -3 3 -56 6 -118 6 -93 0 -113 -3 -118 -16z m161 -40 c-3 -3
-12 -4 -19 -1 -8 3 -5 6 6 6 11 1 17 -2 13 -5z"/>
<path d="M298 323 c-20 -61 -22 -80 -13 -88 12 -10 220 -14 228 -5 3 3 8 15
11 28 7 22 6 22 -83 22 -50 0 -91 4 -91 9 0 5 7 28 15 51 20 57 19 60 -14 60
-27 0 -30 -4 -53 -77z"/>
<path d="M558 320 c-18 -56 -23 -82 -15 -87 17 -10 199 -11 219 -1 15 7 58
124 58 157 0 8 -11 11 -27 9 -24 -3 -30 -11 -44 -58 l-16 -55 -62 -3 -62 -3 7
28 c4 15 11 36 15 45 17 32 10 48 -19 48 -26 0 -30 -5 -54 -80z"/>
<path d="M846 384 c-21 -20 -20 -31 2 -37 13 -4 11 -5 -5 -6 -13 -1 -23 -7
-23 -16 0 -8 0 -18 -1 -22 0 -5 10 -11 23 -15 21 -6 21 -6 -5 -7 -19 -1 -30
-8 -36 -23 -5 -13 -5 -25 0 -29 5 -3 57 -5 115 -4 89 1 109 4 119 19 19 26 29
88 15 96 -8 5 -5 9 8 12 10 3 21 15 25 27 5 21 3 21 -108 21 -90 0 -117 -3
-129 -16z"/>
</g>
</svg>
